<?xml version="1.0" encoding="utf-8"?>
<!-- Generator: Adobe Illustrator 17.0.0, SVG Export Plug-In . SVG Version: 6.00 Build 0)  -->
<!DOCTYPE svg PUBLIC "-//W3C//DTD SVG 1.1//EN" "http://www.w3.org/Graphics/SVG/1.1/DTD/svg11.dtd">
<svg version="1.1" id="Layer_1" xmlns="http://www.w3.org/2000/svg" xmlns:xlink="http://www.w3.org/1999/xlink" x="0px" y="0px"
	 width="145.513px" height="98.854px" viewBox="0 0 145.513 98.854" enable-background="new 0 0 145.513 98.854"
	 xml:space="preserve">
<path fill="none" d="M59.494,34.027c2.206,0,3.188-0.742,4.547-1.77c1.52-1.149,3.412-2.579,6.958-2.579c1.104,0,2,0.896,2,2
	s-0.896,2-2,2c-2.205,0-3.187,0.742-4.546,1.77c-1.519,1.148-3.411,2.578-6.958,2.578c-3.348,0-5.216-1.272-6.693-2.381
	c-0.674,2.11-1.195,4.287-1.556,6.518c1.606,0.517,2.732,1.361,3.702,2.094c1.359,1.027,2.341,1.77,4.546,1.77
	c2.206,0,3.188-0.742,4.547-1.77c1.52-1.149,3.412-2.579,6.958-2.579c1.104,0,2,0.896,2,2s-0.896,2-2,2
	c-2.205,0-3.187,0.742-4.546,1.77c-1.519,1.148-3.411,2.578-6.958,2.578s-5.438-1.43-6.958-2.579
	c-0.612-0.463-1.152-0.863-1.758-1.168c-0.072,1.042-0.121,2.089-0.121,3.148c0,1.565,0.08,3.113,0.235,4.638
	c1.793,0.502,3.018,1.407,4.056,2.191c1.359,1.028,2.341,1.771,4.546,1.771c2.206,0,3.188-0.742,4.547-1.771
	c1.52-1.148,3.411-2.579,6.958-2.579c1.104,0,2,0.896,2,2s-0.896,2-2,2c-2.205,0-3.187,0.742-4.546,1.771
	c-1.52,1.148-3.412,2.579-6.959,2.579s-5.439-1.431-6.958-2.579c-0.315-0.238-0.61-0.459-0.905-0.661
	c0.678,3.225,1.707,6.321,3.031,9.257c0.095,0.071,0.193,0.144,0.285,0.213c1.359,1.028,2.341,1.771,4.546,1.771
	c2.206,0,3.188-0.742,4.547-1.771c1.52-1.148,3.411-2.579,6.958-2.579c1.104,0,2,0.896,2,2s-0.896,2-2,2
	c-2.205,0-3.187,0.742-4.546,1.771c-1.52,1.148-3.412,2.579-6.959,2.579c-0.601,0-1.139-0.053-1.651-0.127
	c8.085,12.589,22.2,20.954,38.241,20.954c25.049,0,45.428-20.378,45.428-45.427C141.513,24.378,121.134,4,96.085,4
	c-18.777,0-34.929,11.451-41.84,27.737c0.244,0.176,0.48,0.351,0.703,0.52C56.307,33.284,57.289,34.027,59.494,34.027z"/>
<path fill="#697487" d="M50.893,54.065c-0.155-1.525-0.235-3.072-0.235-4.638c0-1.059,0.05-2.107,0.121-3.148
	c-0.739-0.372-1.577-0.602-2.789-0.602c-0.443,0-0.826,0.037-1.182,0.093c-0.089,1.209-0.15,2.425-0.15,3.657
	c0,1.452,0.076,2.887,0.199,4.308c0.36-0.034,0.733-0.058,1.133-0.058C49.115,53.677,50.06,53.831,50.893,54.065z"/>
<path fill="#697487" d="M51.246,42.163c0.36-2.231,0.882-4.408,1.556-6.518c-0.088-0.066-0.179-0.133-0.265-0.198
	c-1.076-0.814-1.926-1.442-3.325-1.671c-0.858,2.561-1.52,5.211-1.949,7.939c0.24-0.014,0.469-0.037,0.726-0.037
	C49.273,41.678,50.335,41.869,51.246,42.163z"/>
<path fill="#697487" d="M51.632,58.786c-0.976-0.669-1.948-1.109-3.642-1.109c-0.223,0-0.426,0.013-0.625,0.027
	c0.47,2.775,1.17,5.471,2.083,8.069c2.443,0.305,3.973,1.339,5.216,2.27C53.339,65.108,52.311,62.012,51.632,58.786z"/>
<path fill="#697487" d="M96.085,0C75.726,0,58.206,12.376,50.643,29.997c1.534,0.384,2.662,1.062,3.602,1.74
	C61.156,15.451,77.308,4,96.085,4c25.049,0,45.428,20.378,45.428,45.427c0,25.049-20.379,45.427-45.428,45.427
	c-16.041,0-30.156-8.365-38.241-20.954c-2.511-0.362-4.045-1.499-5.307-2.452c-0.374-0.283-0.72-0.541-1.07-0.771
	c7.961,16.648,24.967,28.177,44.618,28.177c27.255,0,49.428-22.173,49.428-49.427C145.513,22.173,123.34,0,96.085,0z"/>
<path fill="#DEB33E" d="M59.495,38.026c3.547,0,5.439-1.43,6.958-2.578c1.359-1.028,2.341-1.77,4.546-1.77c1.104,0,2-0.896,2-2
	s-0.896-2-2-2c-3.546,0-5.438,1.43-6.958,2.579c-1.359,1.028-2.341,1.77-4.547,1.77c-2.205,0-3.187-0.743-4.546-1.77
	c-0.224-0.169-0.46-0.344-0.703-0.52c-0.54,1.273-1.019,2.578-1.443,3.908C54.279,36.754,56.147,38.026,59.495,38.026z"/>
<path fill="#DEB33E" d="M47.989,29.678c-3.545,0-5.436,1.43-6.955,2.579c-1.358,1.028-2.339,1.77-4.542,1.77
	c-2.204,0-3.186-0.743-4.544-1.77c-1.519-1.149-3.411-2.579-6.957-2.579c-3.545,0-5.436,1.43-6.955,2.579
	c-1.358,1.028-2.339,1.77-4.542,1.77c-2.202,0-3.183-0.742-4.54-1.769c-1.519-1.15-3.409-2.58-6.954-2.58c-1.104,0-2,0.896-2,2
	s0.896,2,2,2c2.202,0,3.183,0.742,4.541,1.768c1.519,1.15,3.409,2.58,6.954,2.58c3.545,0,5.436-1.43,6.955-2.579
	c1.358-1.028,2.339-1.77,4.542-1.77c2.204,0,3.186,0.743,4.544,1.77c1.519,1.149,3.411,2.579,6.957,2.579
	c3.545,0,5.436-1.43,6.955-2.579c1.358-1.028,2.339-1.77,4.542-1.77c0.459,0,0.855,0.039,1.222,0.099
	c0.429-1.282,0.901-2.545,1.43-3.779C49.87,29.804,49.003,29.678,47.989,29.678z"/>
<path fill="#594F26" d="M52.802,35.645c0.424-1.329,0.903-2.634,1.443-3.908c-0.94-0.677-2.068-1.355-3.602-1.74
	c-0.529,1.233-1.001,2.496-1.43,3.779c1.399,0.229,2.248,0.857,3.325,1.671C52.622,35.511,52.714,35.579,52.802,35.645z"/>
<path fill="#DEB33E" d="M41.034,44.257c-1.358,1.028-2.339,1.77-4.542,1.77c-2.204,0-3.186-0.743-4.544-1.77
	c-1.519-1.149-3.411-2.579-6.957-2.579c-3.545,0-5.436,1.43-6.955,2.579c-1.358,1.028-2.339,1.77-4.542,1.77
	c-2.202,0-3.183-0.742-4.54-1.769c-1.519-1.15-3.409-2.58-6.954-2.58c-1.104,0-2,0.896-2,2s0.896,2,2,2
	c2.202,0,3.183,0.742,4.541,1.768c1.519,1.15,3.409,2.58,6.954,2.58c3.545,0,5.436-1.43,6.955-2.579
	c1.358-1.028,2.339-1.77,4.542-1.77c2.204,0,3.186,0.743,4.544,1.77c1.519,1.149,3.411,2.579,6.957,2.579
	c3.545,0,5.436-1.43,6.955-2.579c1.085-0.822,1.94-1.453,3.36-1.677c0.101-1.367,0.246-2.721,0.456-4.056
	C44.19,41.898,42.443,43.191,41.034,44.257z"/>
<path fill="#DEB33E" d="M59.495,50.026c3.547,0,5.439-1.43,6.958-2.578c1.359-1.028,2.341-1.77,4.546-1.77c1.104,0,2-0.896,2-2
	s-0.896-2-2-2c-3.546,0-5.438,1.43-6.958,2.579c-1.359,1.028-2.341,1.77-4.547,1.77c-2.205,0-3.187-0.743-4.546-1.77
	c-0.97-0.733-2.096-1.577-3.702-2.094c-0.218,1.353-0.371,2.726-0.467,4.116c0.606,0.305,1.145,0.705,1.758,1.168
	C54.057,48.596,55.948,50.026,59.495,50.026z"/>
<path fill="#594F26" d="M50.779,46.279c0.096-1.39,0.248-2.763,0.467-4.116c-0.911-0.294-1.973-0.485-3.257-0.485
	c-0.256,0-0.486,0.023-0.726,0.037c-0.21,1.334-0.355,2.689-0.456,4.056c0.357-0.056,0.74-0.093,1.182-0.093
	C49.202,45.677,50.041,45.906,50.779,46.279z"/>
<path fill="#DEB33E" d="M41.035,56.257c-1.358,1.028-2.339,1.77-4.542,1.77c-2.204,0-3.186-0.743-4.544-1.77
	c-1.519-1.149-3.411-2.58-6.957-2.58c-3.545,0-5.436,1.431-6.955,2.58c-1.358,1.028-2.339,1.77-4.542,1.77
	c-2.202,0-3.183-0.743-4.54-1.77c-1.519-1.149-3.409-2.58-6.954-2.58c-1.104,0-2,0.896-2,2s0.896,2,2,2
	c2.202,0,3.183,0.743,4.54,1.77c1.519,1.149,3.409,2.58,6.954,2.58c3.545,0,5.436-1.431,6.955-2.58
	c1.358-1.028,2.339-1.77,4.542-1.77c2.204,0,3.186,0.743,4.544,1.77c1.519,1.149,3.411,2.58,6.957,2.58
	c3.545,0,5.436-1.431,6.955-2.58c1.22-0.924,2.144-1.612,3.917-1.743c-0.221-1.307-0.391-2.631-0.507-3.97
	C44.029,54.002,42.383,55.238,41.035,56.257z"/>
<path fill="#DEB33E" d="M59.495,62.027c3.547,0,5.439-1.431,6.959-2.579c1.359-1.029,2.341-1.771,4.546-1.771c1.104,0,2-0.896,2-2
	s-0.896-2-2-2c-3.547,0-5.438,1.431-6.958,2.579c-1.359,1.029-2.341,1.771-4.547,1.771c-2.205,0-3.187-0.743-4.546-1.771
	c-1.038-0.784-2.263-1.689-4.056-2.191c0.163,1.6,0.414,3.174,0.74,4.722c0.295,0.202,0.589,0.423,0.905,0.661
	C54.056,60.596,55.948,62.027,59.495,62.027z"/>
<path fill="#594F26" d="M51.632,58.786c-0.325-1.547-0.576-3.121-0.74-4.722c-0.833-0.233-1.777-0.388-2.903-0.388
	c-0.4,0-0.773,0.024-1.133,0.058c0.116,1.339,0.286,2.663,0.507,3.97c0.2-0.015,0.402-0.027,0.625-0.027
	C49.684,57.677,50.657,58.117,51.632,58.786z"/>
<path fill="#DEB33E" d="M66.454,71.448c1.359-1.029,2.341-1.771,4.546-1.771c1.104,0,2-0.896,2-2s-0.896-2-2-2
	c-3.547,0-5.438,1.431-6.958,2.579c-1.359,1.029-2.341,1.771-4.547,1.771c-2.205,0-3.187-0.743-4.546-1.771
	c-0.092-0.069-0.19-0.142-0.285-0.213c0.919,2.037,1.983,3.993,3.18,5.857c0.512,0.074,1.05,0.127,1.651,0.127
	C63.042,74.027,64.934,72.596,66.454,71.448z"/>
<path fill="#DEB33E" d="M47.99,65.677c-3.545,0-5.436,1.431-6.955,2.58c-1.358,1.028-2.339,1.77-4.542,1.77
	c-2.204,0-3.186-0.743-4.544-1.77c-1.519-1.149-3.411-2.58-6.957-2.58c-3.545,0-5.436,1.431-6.955,2.58
	c-1.358,1.028-2.339,1.77-4.542,1.77c-2.202,0-3.183-0.743-4.54-1.77c-1.519-1.149-3.409-2.58-6.954-2.58c-1.104,0-2,0.896-2,2
	s0.896,2,2,2c2.202,0,3.183,0.743,4.54,1.77c1.519,1.149,3.409,2.58,6.954,2.58c3.545,0,5.436-1.431,6.955-2.58
	c1.358-1.028,2.339-1.77,4.542-1.77c2.204,0,3.186,0.743,4.544,1.77c1.519,1.149,3.411,2.58,6.957,2.58
	c3.545,0,5.436-1.431,6.955-2.58c1.358-1.028,2.339-1.77,4.542-1.77c1.599,0,2.555,0.394,3.477,1
	c-0.76-1.589-1.43-3.228-2.019-4.904C48.992,65.716,48.514,65.677,47.99,65.677z"/>
<path fill="#594F26" d="M57.844,73.9c-1.197-1.864-2.261-3.82-3.18-5.857c-1.243-0.931-2.772-1.965-5.216-2.27
	c0.589,1.677,1.259,3.315,2.019,4.904c0.35,0.23,0.696,0.488,1.07,0.771C53.799,72.402,55.333,73.538,57.844,73.9z"/>
<g>
	<circle fill="#FFFFFF" cx="96.085" cy="49.427" r="36.607"/>
	<path fill="#323A47" d="M96.085,88.034c-21.288,0-38.607-17.318-38.607-38.606S74.797,10.82,96.085,10.82
		s38.607,17.319,38.607,38.607S117.373,88.034,96.085,88.034z M96.085,14.82c-19.082,0-34.607,15.524-34.607,34.607
		c0,19.082,15.525,34.606,34.607,34.606c19.083,0,34.607-15.524,34.607-34.606S115.168,14.82,96.085,14.82z"/>
</g>
<g>
	<g>
		<path fill="#DEB33E" d="M76.683,26.739h4.343v7.811h8.009v-7.811h4.343v19.74h-4.343v-7.924h-8.009v7.924h-4.343V26.739z"/>
	</g>
</g>
<g>
	<g>
		<path fill="#DEB33E" d="M99.426,51.688h7.698c1.541,0,2.956,0.249,4.244,0.747s2.397,1.189,3.328,2.073
			c0.931,0.884,1.65,1.922,2.157,3.116c0.508,1.194,0.761,2.486,0.761,3.877v0.056c0,1.391-0.254,2.689-0.761,3.892
			c-0.508,1.203-1.227,2.247-2.157,3.13c-0.931,0.884-2.04,1.579-3.328,2.087c-1.288,0.507-2.703,0.761-4.244,0.761h-7.698V51.688z
			 M107.124,67.508c0.883,0,1.692-0.141,2.425-0.423s1.358-0.686,1.875-1.213c0.517-0.526,0.921-1.146,1.213-1.861
			c0.291-0.714,0.437-1.513,0.437-2.397v-0.056c0-0.865-0.146-1.664-0.437-2.397c-0.292-0.733-0.696-1.363-1.213-1.889
			s-1.142-0.935-1.875-1.227c-0.733-0.291-1.542-0.437-2.425-0.437h-3.356v11.9C103.768,67.508,107.124,67.508,107.124,67.508z"/>
	</g>
</g>
<g>
	<path fill="#323A47" d="M79.568,67.317c-0.384,0-0.768-0.146-1.061-0.439c-0.586-0.586-0.586-1.535,0-2.121l32.918-32.918
		c0.586-0.586,1.535-0.586,2.121,0c0.586,0.585,0.586,1.536,0,2.121L80.629,66.877C80.336,67.17,79.952,67.317,79.568,67.317z"/>
</g>
</svg>
