<?xml version="1.0" encoding="utf-8"?>
<!-- Generator: Adobe Illustrator 17.0.0, SVG Export Plug-In . SVG Version: 6.00 Build 0)  -->
<!DOCTYPE svg PUBLIC "-//W3C//DTD SVG 1.1//EN" "http://www.w3.org/Graphics/SVG/1.1/DTD/svg11.dtd">
<svg version="1.1" id="Layer_1" xmlns="http://www.w3.org/2000/svg" xmlns:xlink="http://www.w3.org/1999/xlink" x="0px" y="0px"
	 width="146.333px" height="207.667px" viewBox="0 0 146.333 207.667" enable-background="new 0 0 146.333 207.667"
	 xml:space="preserve">
<defs>
	<path id="sun-clip" d="M108.117,31.094c-18.881,0-35.424,9.993-44.641,24.976l50.566,79.443 c26.138-2.944,46.456-25.114,46.456-52.038C160.498,54.546,137.046,31.094,108.117,31.094z"/>
</defs>
<clipPath id="sun-clip-path">
	<use xlink:href="#sun-clip"  overflow="visible"/>
</clipPath>

<path fill="#fff" clip-path="url(#sun-clip-path)" d="M108.117,53.094c16.752,0,30.381,13.629,30.381,30.381s-13.629,30.381-30.381,30.381 s-30.381-13.629-30.381-30.381S91.365,53.094,108.117,53.094 M108.117,47.094c-20.093,0-36.381,16.288-36.381,36.381 c0,20.093,16.288,36.381,36.381,36.381c20.093,0,36.381-16.288,36.381-36.381C144.498,63.382,128.209,47.094,108.117,47.094 L108.117,47.094z"/>

<polyline id="tipi" fill="none" stroke="#fff" stroke-width="6" stroke-linecap="round" stroke-linejoin="round" stroke-miterlimit="10" points="30.235,3.831 120.101,145 3.695,145 93.988,4.975"/>

<g id="waves">
	<path fill="none" stroke="#fff" stroke-width="6" stroke-linecap="round" stroke-miterlimit="10" d="M5.333,159.033 c9.416,0,9.416,8,18.832,8c9.413,0,9.413-8,18.827-8c9.417,0,9.417,8,18.833,8c9.417,0,9.417-8,18.834-8c9.418,0,9.418,8,18.837,8 s9.418-8,18.837-8"/>
	<path fill="none" stroke="#fff" stroke-width="6" stroke-linecap="round" stroke-linejoin="round" stroke-miterlimit="10" d="M6.333,178.033c9.416,0,9.416,8,18.832,8c9.413,0,9.413-8,18.827-8c9.417,0,9.417,8,18.833,8c9.417,0,9.417-8,18.834-8 c9.418,0,9.418,8,18.837,8s9.418-8,18.837-8"/>
	<path fill="none" stroke="#fff" stroke-width="6" stroke-linecap="round" stroke-linejoin="round" stroke-miterlimit="10" d="M6.333,196.033c9.416,0,9.416,8,18.832,8c9.413,0,9.413-8,18.827-8c9.417,0,9.417,8,18.833,8c9.417,0,9.417-8,18.834-8 c9.418,0,9.418,8,18.837,8s9.418-8,18.837-8"/>
</g>

</svg>